<mxfile>
    <diagram id="uuUG2eeMbws5QbSCVgJY" name="Page-1">
        <mxGraphModel dx="649" dy="339" grid="1" gridSize="10" guides="1" tooltips="1" connect="1" arrows="1" fold="1" page="1" pageScale="1" pageWidth="850" pageHeight="1100" math="0" shadow="0">
            <root>
                <mxCell id="0"/>
                <mxCell id="1" parent="0"/>
                <mxCell id="10" value="" style="shape=cylinder3;whiteSpace=wrap;html=1;boundedLbl=1;backgroundOutline=1;size=15;" vertex="1" parent="1">
                    <mxGeometry x="350" y="30" width="90" height="80" as="geometry"/>
                </mxCell>
                <mxCell id="6" value="" style="shape=image;imageAspect=0;aspect=fixed;verticalLabelPosition=bottom;verticalAlign=top;image=data:image/svg+xml,PHN2ZyB4bWxucz0iaHR0cDovL3d3dy53My5vcmcvMjAwMC9zdmciIHhtbG5zOnhsaW5rPSJodHRwOi8vd3d3LnczLm9yZy8xOTk5L3hsaW5rIiB2ZXJzaW9uPSIxLjEiIGlkPSJMYXllcl8xIiB4PSIwcHgiIHk9IjBweCIgdmlld0JveD0iMCAwIDczNSA4NTIiIHN0eWxlPSJlbmFibGUtYmFja2dyb3VuZDpuZXcgMCAwIDczNSA4NTI7IiB4bWw6c3BhY2U9InByZXNlcnZlIj4mI3hhOzxzdHlsZSB0eXBlPSJ0ZXh0L2NzcyI+JiN4YTsJLnN0MHtmaWxsOiM0MjhCQ0E7fSYjeGE7CS5zdDF7b3BhY2l0eTowLjI1O2ZpbGw6dXJsKCNTVkdJRF8xXyk7ZW5hYmxlLWJhY2tncm91bmQ6bmV3ICAgIDt9JiN4YTsJLnN0MntmaWxsOiMzNjc0QTg7fSYjeGE7CS5zdDN7ZmlsbDojRTZCMzVBO30mI3hhOwkuc3Q0e2ZpbGw6I0ZGRkZGRjt9JiN4YTsJLnN0NXtvcGFjaXR5OjAuOTtmaWxsOiNGRkZGRkY7ZW5hYmxlLWJhY2tncm91bmQ6bmV3ICAgIDt9JiN4YTs8L3N0eWxlPiYjeGE7PHRpdGxlPnNoaW55PC90aXRsZT4mI3hhOzxwYXRoIGNsYXNzPSJzdDAiIGQ9Ik03MTUuMSwyMjYuOEwzNjYuOSwxNmwtMzQ3LDIxMC44djQwMS41TDM2Ny41LDgyOWwzNDcuNi0yMDAuN1YyMjYuOHoiLz4mI3hhOzxsaW5lYXJHcmFkaWVudCBpZD0iU1ZHSURfMV8iIGdyYWRpZW50VW5pdHM9InVzZXJTcGFjZU9uVXNlIiB4MT0iMzY2LjE0MDUiIHkxPSItMTgyLjM5IiB4Mj0iMzY3LjQ0MDUiIHkyPSIyODEuMTMiIGdyYWRpZW50VHJhbnNmb3JtPSJtYXRyaXgoMSAwIDAgMSAwIDYwKSI+JiN4YTsJPHN0b3Agb2Zmc2V0PSIwIiBzdHlsZT0ic3RvcC1jb2xvcjojRkZGRkZGO3N0b3Atb3BhY2l0eTowLjgzIi8+JiN4YTsJPHN0b3Agb2Zmc2V0PSIwLjU2IiBzdHlsZT0ic3RvcC1jb2xvcjojRkZGRkZGO3N0b3Atb3BhY2l0eTowLjM3Ii8+JiN4YTsJPHN0b3Agb2Zmc2V0PSIxIiBzdHlsZT0ic3RvcC1jb2xvcjojRkZGRkZGO3N0b3Atb3BhY2l0eTowIi8+JiN4YTs8L2xpbmVhckdyYWRpZW50PiYjeGE7PHBhdGggY2xhc3M9InN0MSIgZD0iTTM2Ni45LDM0MC40YzEyOC4yLDAsMjM4LjYtNTcsMjg3LjgtMTM4LjhMMzY3LjUsMzUuOGwwLDBMNzkuNCwyMDIuMkMxMjguOCwyODMuNywyMzguOSwzNDAuNCwzNjYuOSwzNDAuNHoiLz4mI3hhOzxwYXRoIGNsYXNzPSJzdDIiIGQ9Ik03MzQuOSw2MzcuNFYyMTMuMWwtMjkuMy0xNi45TDQyNy44LDM1LjhMMzY3LjUsMWwtNjAuMywzNC44TDI5LjQsMTk2LjJMMC4xLDIxMy4xdjQyNC4ybDI5LjMsMTYuOSAgbDI4MS4zLDE2Mi40bDU2LjksMzIuOGw1Ni45LTMyLjhsMjgxLjMtMTYyLjRMNzM0LjksNjM3LjR6IE0yOS40LDYyMS41VjIzMWw1MC0yOC45TDM2Ny41LDM1LjhsMCwwbDI4Ny4yLDE2NS44bDUwLjksMjkuNHYzOTAuNSAgTDM2Ny41LDgxNi43TDI5LjQsNjIxLjV6Ii8+JiN4YTs8cGF0aCBjbGFzcz0ic3QzIiBkPSJNMzY3LDYzMy45YzAuMy0wLjMsMC42LTAuNiwwLjktMC45aC0wLjNDMzY3LjUsNjMzLjMsMzY3LjMsNjMzLjYsMzY3LDYzMy45eiIvPiYjeGE7PHBhdGggY2xhc3M9InN0NCIgZD0iTTM2NS41LDc5Ny4zbDQuNSw0LjVjMSwxLDEuOSwxLjksMi43LDIuOWgwLjFjLTAuNC0xLjItMC43LTIuNS0xLTMuOGwtMS40LTYuM2wxLjYtMC45bDQuNyw0LjMgIGMxLjEsMSwyLjEsMiwyLjksMi45aDAuMWMtMC41LTEuMy0wLjktMi41LTEuMi0zLjhsLTEuNi02LjFsMS45LTEuMWwyLjcsMTIuM2wtMS43LDFsLTQuNS00LjFjLTEtMC45LTItMS45LTIuOS0yLjlsMCwwICBjMC40LDEuMywwLjgsMi42LDEuMSw0bDEuMiw2bC0xLjcsMWwtOS4yLTguNkwzNjUuNSw3OTcuM3oiLz4mI3hhOzxwYXRoIGNsYXNzPSJzdDQiIGQ9Ik0zODEuNyw3ODcuOWw0LjUsNC41YzEsMSwxLjksMS45LDIuNywyLjloMC4xYy0wLjQtMS4yLTAuNy0yLjUtMS0zLjhsLTEuNC02LjNsMS42LTAuOWw0LjcsNC4zICBjMS4xLDEsMi4xLDIsMi45LDIuOWgwLjFjLTAuNS0xLjMtMC45LTIuNS0xLjItMy44bC0xLjYtNi4xbDEuOS0xLjFsMi43LDEyLjRsLTEuNywxbC00LjUtNC4xYy0xLTAuOS0yLTEuOS0yLjktMi45bDAsMCAgYzAuNCwxLjMsMC44LDIuNiwxLjEsNGwxLjIsNmwtMS43LDFsLTkuMi04LjdMMzgxLjcsNzg3Ljl6Ii8+JiN4YTs8cGF0aCBjbGFzcz0ic3Q0IiBkPSJNMzk3LjksNzc4LjVsNC41LDQuNWMxLDEsMS45LDEuOSwyLjcsMi45aDAuMWMtMC40LTEuMi0wLjctMi41LTEtMy44bC0xLjQtNi4zbDEuNi0wLjlsNC43LDQuMyAgYzEuMSwxLDIuMSwyLDIuOSwyLjloMC4xYy0wLjUtMS4zLTAuOC0yLjYtMS4yLTMuOWwtMS42LTYuMWwxLjktMS4xbDIuNywxMi40bC0xLjcsMWwtNC41LTQuMWMtMS0wLjktMi0xLjktMi45LTIuOWwwLDAgIGMwLjQsMS4zLDAuOCwyLjYsMS4xLDRsMS4yLDZsLTEuNywxbC05LjItOC42TDM5Ny45LDc3OC41eiIvPiYjeGE7PHBhdGggY2xhc3M9InN0NCIgZD0iTTQxNy4xLDc3OS43Yy0wLjUtMC43LTAuMy0xLjYsMC40LTIuMWMwLDAsMC4xLDAsMC4xLTAuMWMwLjgtMC40LDEuNywwLDIuMSwwLjhjMC4zLDAuNywwLjEsMS41LTAuNSwyICBDNDE4LjUsNzgwLjgsNDE3LjYsNzgwLjUsNDE3LjEsNzc5LjdDNDE3LjIsNzc5LjgsNDE3LjEsNzc5LjgsNDE3LjEsNzc5Ljd6Ii8+JiN4YTs8cGF0aCBjbGFzcz0ic3Q0IiBkPSJNNDE4LjUsNzcwLjhjLTAuNy0xLjItMS40LTIuMy0yLTMuMmwxLjctMWwxLjMsMmgwLjFjLTAuNC0xLjUsMC4yLTMuMiwxLjYtNGMwLjItMC4xLDAuNC0wLjIsMC42LTAuMmwxLDEuOCAgYy0wLjIsMC4xLTAuNSwwLjItMC43LDAuM2MtMS4zLDAuOC0xLjgsMi41LTEuMSwzLjljMC4xLDAuMywwLjMsMC42LDAuNCwwLjlsMy4yLDUuNmwtMS44LDEuMUw0MTguNSw3NzAuOHoiLz4mI3hhOzxwYXRoIGNsYXNzPSJzdDQiIGQ9Ik00MjguNCw3NzIuMWMxLDAsMi0wLjIsMy0wLjdjMS40LTAuOCwxLjYtMS45LDEuMS0yLjdzLTEuNC0xLjEtMy4xLTAuOGMtMi4zLDAuNC0zLjgtMC4xLTQuNS0xLjMgIGMtMS0xLjctMC40LTMuOCwxLjgtNS4yYzAuOS0wLjUsMS45LTAuOCwzLTAuOGwwLjMsMS43Yy0wLjksMC0xLjcsMC4yLTIuNSwwLjZjLTAuOSwwLjQtMS4zLDEuNC0xLDIuM2MwLDAuMSwwLDAuMSwwLjEsMC4yICBjMC41LDAuOSwxLjQsMC45LDMsMC42YzIuMi0wLjQsMy43LDAsNC42LDEuNWMxLjEsMS44LDAuNCw0LTIuMSw1LjRjLTEsMC42LTIuMiwxLTMuNCwxTDQyOC40LDc3Mi4xeiIvPiYjeGE7PHBhdGggY2xhc3M9InN0NCIgZD0iTTQzMi44LDc1NC4xbDEuOCwzbDIuNy0xLjZsMC45LDEuNWwtMi43LDEuNmwzLjMsNS42YzAuOCwxLjMsMS41LDEuOCwyLjYsMS4yYzAuNC0wLjIsMC43LTAuNSwxLTAuOGwwLjksMS40ICBjLTAuNCwwLjUtMSwwLjktMS41LDEuMmMtMC43LDAuNS0xLjcsMC42LTIuNSwwLjRjLTEtMC40LTEuOS0xLjMtMi4zLTIuM2wtMy4zLTUuN2wtMS42LDAuOWwtMC44LTEuNWwxLjYtMC45bC0xLjUtMi41TDQzMi44LDc1NC4xICB6Ii8+JiN4YTs8cGF0aCBjbGFzcz0ic3Q0IiBkPSJNNDUyLjYsNzU2LjhjMC42LDEuMSwxLjIsMiwxLjcsMi44bC0xLjcsMWwtMS4xLTEuNmwwLDBjMCwxLjctMC45LDMuMi0yLjMsNGMtMS42LDEtNC4xLDEuMi02LjMtMi41bC0zLjYtNi4xICBsMS45LTEuMWwzLjMsNS44YzEuMiwyLDIuNSwzLDQuMywyYzEuMS0wLjcsMS43LTEuOSwxLjUtMy4yYy0wLjEtMC40LTAuMi0wLjctMC40LTEuMWwtMy43LTYuNGwxLjktMS4xTDQ1Mi42LDc1Ni44eiIvPiYjeGE7PHBhdGggY2xhc3M9InN0NCIgZD0iTTQ1Ny41LDczNy4ybDcuNCwxMi42YzAuNSwwLjksMS4yLDIsMS43LDIuN2wtMS43LDFsLTEuMS0xLjhsMCwwYzAuMSwxLjctMC45LDMuMy0yLjQsNC4xICBjLTIuNSwxLjUtNS43LDAuNS03LjYtMi43Yy0yLTMuNS0xLjEtNi45LDEuNC04LjNjMS4yLTAuOCwyLjgtMC45LDQuMS0wLjJsMCwwbC0zLjYtNi4yTDQ1Ny41LDczNy4yeiBNNDYwLjksNzQ3LjUgIGMtMC4yLTAuMy0wLjMtMC41LTAuNS0wLjhjLTEtMS4xLTIuNy0xLjQtNC0wLjZjLTIsMS4xLTIuMSwzLjUtMC44LDUuOWMxLjIsMi4xLDMuMywzLjMsNS4zLDIuMWMxLjMtMC44LDItMi40LDEuNS0zLjkgIGMtMC4xLTAuMy0wLjItMC42LTAuNC0wLjlMNDYwLjksNzQ3LjV6Ii8+JiN4YTs8cGF0aCBjbGFzcz0ic3Q0IiBkPSJNNDYzLjksNzM2LjFjMC40LDAuNywwLjIsMS41LTAuNSwxLjlzLTEuNSwwLjItMS45LTAuNWMtMC40LTAuNi0wLjItMS41LDAuNC0xLjhjMCwwLDAsMCwwLjEsMCAgQzQ2Mi42LDczNS4yLDQ2My41LDczNS40LDQ2My45LDczNi4xQzQ2My45LDczNiw0NjMuOSw3MzYsNDYzLjksNzM2LjF6IE00NjkuNiw3NTAuN2wtNi4xLTEwLjVsMS45LTEuMWw2LjEsMTAuNUw0NjkuNiw3NTAuN3oiLz4mI3hhOzxwYXRoIGNsYXNzPSJzdDQiIGQ9Ik00ODEsNzM2LjljMi4yLDMuOSwwLjUsNy4xLTIsOC42Yy0yLjgsMS43LTYuMiwwLjgtOC4xLTIuNWMtMi0zLjUtMC45LTYuOSwyLTguNlM0NzkuMSw3MzMuOCw0ODEsNzM2Ljl6ICAgTTQ3Mi44LDc0MS45YzEuMywyLjMsMy43LDMuMiw1LjUsMi4yczIuMi0zLjYsMC44LTUuOWMtMS0xLjgtMy4yLTMuNS01LjUtMi4yUzQ3MS42LDczOS45LDQ3Mi44LDc0MS45TDQ3Mi44LDc0MS45eiIvPiYjeGE7PHBhdGggY2xhc3M9InN0NCIgZD0iTTQ4NC45LDc0MC4zYy0wLjQtMC43LTAuMS0xLjYsMC43LTJjMC43LTAuNCwxLjYtMC4xLDIsMC43YzAuNCwwLjcsMC4xLDEuNi0wLjYsMnMtMS42LDAuMi0yLTAuNSAgQzQ4NC45LDc0MC40LDQ4NC45LDc0MC4zLDQ4NC45LDc0MC4zeiIvPiYjeGE7PHBhdGggY2xhc3M9InN0NCIgZD0iTTQ5Ny43LDczMy44Yy0wLjcsMS0xLjYsMS44LTIuNiwyLjNjLTMuMSwxLjgtNi41LDAuOS04LjMtMi4zYy0xLjgtMi44LTEtNi42LDEuOC04LjVjMC4yLTAuMSwwLjQtMC4yLDAuNi0wLjMgIGMwLjktMC41LDEuOS0wLjksMi45LTFsMC40LDEuN2MtMC45LDAtMS43LDAuMy0yLjUsMC44Yy0yLjQsMS40LTIuNywzLjktMS40LDYuMWMxLjQsMi40LDMuOCwzLDUuOSwxLjhjMC44LTAuNSwxLjUtMS4xLDItMS45ICBMNDk3LjcsNzMzLjh6Ii8+JiN4YTs8cGF0aCBjbGFzcz0ic3Q0IiBkPSJNNTA2LjQsNzIyLjJjMi4zLDMuOSwwLjYsNy4xLTIsOC42Yy0yLjgsMS42LTYuMiwwLjgtOC4xLTIuNWMtMi0zLjUtMC45LTYuOSwyLTguNlM1MDQuNSw3MTksNTA2LjQsNzIyLjJ6ICAgTTQ5OC4xLDcyNy4xYzEuMywyLjMsMy43LDMuMiw1LjUsMi4yczIuMi0zLjYsMC44LTUuOWMtMS0xLjgtMy4yLTMuNS01LjUtMi4yUzQ5Nyw3MjUuMSw0OTguMSw3MjcuMXoiLz4mI3hhOzxwYXRoIGNsYXNzPSJzdDQiIGQ9Ik01MDcuNCw3MTguNWMtMC42LTEuMS0xLjItMi0xLjctMi44bDEuNy0xbDEuMSwxLjZoMC4xYy0wLjEtMS42LDAuOC0zLjEsMi4yLTMuOGMxLjMtMC44LDMtMC42LDQuMiwwLjRsMCwwICBjMC0wLjcsMC4xLTEuNCwwLjQtMmMwLjQtMC45LDEtMS42LDEuOS0yLjFjMS40LTAuOCw0LTEuMSw2LjEsMi41bDMuNiw2LjJsLTEuOCwxLjFsLTMuNS01LjljLTEuMi0yLTIuNi0yLjgtNC4xLTEuOSAgYy0xLDAuNi0xLjUsMS44LTEuMiwzYzAuMSwwLjQsMC4yLDAuNywwLjQsMWwzLjgsNi41bC0xLjksMS4xbC0zLjctNi4zYy0xLTEuNy0yLjQtMi41LTMuOS0xLjZjLTEuMywxLTEuNywyLjgtMC45LDQuM2wzLjcsNi4zICBsLTEuOSwxLjFMNTA3LjQsNzE4LjV6Ii8+JiN4YTs8cGF0aCBjbGFzcz0ic3Q1IiBkPSJNMTIzLjIsNDU4TDEyMy4yLDQ1OEMxMTkuOSw0NTcuOSwxMjIuMSw0NTgsMTIzLjIsNDU4eiBNMTIzLjEsNDU4Yy0zLjItMC4xLTEuOCwwLTAuNywwaDEuN0gxMjRIMTIzLjEgIEMxMjMuOCw0NTgsMTI0LjEsNDU4LjEsMTIzLjEsNDU4eiBNMTI0LDQ1OGMzNC45LDAuOCw3MS40LTcuMyw4Mi00OC44YzYuOS0yNi44LTEwLjMtNDYuMy0yNS41LTY1LjljLTAuMS0wLjEtMC4yLTAuMi0wLjItMC40ICBjLTAuNi0yLjUtMTcuMS0xNy43LTIxLjctMjMuNGMwLTAuMS0wLjEtMC4xLTAuMi0wLjJjLTIuMi0xLjYtNC41LTkuNy01LjYtMTQuMmMtMC41LTEuOS0wLjUtMy44LTAuMS01LjcgIGM0LTIwLjQsNi4yLTM1LjMsMzMuMy0zMC45YzE5LjUsMy4yLDkuNCwzMS44LDE5LjksMzQuNmgwLjJjNi4zLDAuNiwxOC42LTE0LjUsMjAuNC0xOS42YzctMTkuOC0zMy40LTMxLjktNDUuNy0zMS4xICBjLTI0LjcsMS41LTQwLjksMTQuOS01MC44LDM3Yy0xOC4yLDQwLjcsMTUuOCw2Ny44LDM2LjQsOTUuN2MxNS42LDIxLjEsMTQuOSwzOS45LTQuMiw1OGMtMjEsMTkuOS00NS40LTcuNS00OC4yLTI2LjggIGMtMi41LTE3LjctMi4zLTMwLTE3LjEtNy41QzgzLjIsNDI5LjcsOTcuMyw0NTYuOSwxMjQsNDU4TDEyNCw0NTh6IE02NzMuNSwzNjEuNHYwLjJjLTAuNCw0LjMtMS4zLDguNS0yLjgsMTIuNiAgYy0yLjYsNi44LTUuOSwxMy40LTkuOSwxOS41Yy00LjksNy41LTcuNSwxMC41LTEyLjYsMTcuMWMtOS42LDEyLjUtMTcsMjEuOC0yOC4yLDMzLjdjLTE1LjYsMTYuNS0zMywzNS40LTUyLDQ4LjkgIGMtMjcuMSwxOS40LTYxLjMsMjQuNy05My43LDI3LjdjLTk0LjgsOC42LTIzNC4zLDIxLjQtMjYzLjcsMTI0Yy0wLjIsMC42LTAuNywwLjktMS4zLDAuN2MtMC4zLTAuMS0wLjUtMC4yLTAuNi0wLjUgIEMxNzkuOSw1OTYuMSwxMTgsNTYwLDYwLjYsNTYxLjdjLTAuNiwwLjEtMS4xLTAuMi0xLjItMC44czAuMi0xLjEsMC44LTEuMkMyMDgsNDg2LjMsMzU5LDUyMS41LDUxOC42LDQ5MyAgYzM5LjktNy4xLDczLjQtMzMuMyw5Ny41LTY0LjhjOS4yLTExLjksMjEtMjIsMjkuMS0zNC43YzEuMy0yLjEsOC0xOC44LTIuNC0xMS43Yy0xNi4xLDEwLjktMjkuNywyNC40LTQ3LjIsMzIuOSAgYy0wLjgsMC40LTEuNywwLjgtMi42LDEuMWMtMC4zLDAuMS0wLjUsMC40LTAuNiwwLjdjLTIuNSw4LjItNiwxNi4xLTEwLjUsMjMuNGMtNS4zLDguMy0xMi40LDE1LjQtMjAuOCwyMC43ICBjLTcuOCw1LjItMTYuOSw4LjItMjYuMiw4LjljLTEuMywwLjEtMi41LDAuMS0zLjgsMC4xYy03LjQsMC0xMi4yLTAuNi0xNy45LTMuNWMtNy4zLTMuOC05LjYtMTAtMTAuMS0xNy41ICBjLTAuMy00LjUsMi41LTkuNCw0LjgtMTMuMXM2LTcuOCw4LjYtOC45bDAuMi0wLjFjMTMtOS42LDM1LjEtMTAuMyw1MC4xLTE0LjRjMC40LTAuMSwwLjctMC40LDAuNy0wLjdMNTc1LDM4NCAgYzAuMi0wLjYtMC4yLTEuMS0wLjctMS4zYy0wLjQtMC4xLTAuOSwwLjEtMS4xLDAuNGMtMy44LDUuNi04LDEwLjktMTIuNSwxNS45Yy01LjksNi4yLTEwLjUsMTAtMTQsMTEuNGMtNCwxLjUtOC4yLDIuNC0xMi40LDIuNiAgYy01LDAuMy05LjMtMS43LTEyLjYtNS45cy01LjEtMTAuNC01LjUtMTguNmMtMC4xLTEuMy0wLjEtMi44LDAtNC40YzAuMS0wLjYtMC4yLTEuMS0wLjctMS4zYy0wLjYtMC4xLTEuMSwwLjItMS4zLDAuNyAgYy0xLjYsMy4xLTMuMiw2LTQuOCw4LjZjLTQuNyw4LjItMTAuNiwxNS43LTE3LjMsMjIuNGMtNi42LDYuNi0xMywxMC4xLTE4LjksMTAuNWMtMTEuMSwwLjctMTcuMS01LjYtMTcuOS0xOC44ICBjLTAuOC0xMi42LDQuMi0zOC41LDE1LTc3LjFjMC42LTEuNywwLjgtMy41LDAuNy01LjJjLTAuMi0zLjUtMi4yLTQuOS02LjMtNC42Yy00LjcsMC40LTkuMiwyLjMtMTIuOSw1LjQgIGMtNC42LDMuOS04LjQsOC43LTExLjEsMTQuMWMtMy4zLDYtNi4yLDEyLjItOC45LDE4LjVjLTIuOCw2LjktNS4xLDE0LjEtNi45LDIxLjRjLTIsOC4xLTMuNywxNC45LTQuOCwyMC4yICBjLTEuMiw1LjUtMi4zLDExLjMtMy40LDE3LjNjLTAuOCw0LjItMS43LDkuNC0xLjksMTAuMmwtMC4yLDAuOGwtMjcuNSwxLjhsLTAuMS0xYy0wLjItMi40LDEuOC0xMC45LDUuOC0yNS44ICBjLTAuOCwxLjQtMS42LDIuOC0yLjQsNC4yYy00LjcsOC4yLTEwLjUsMTUuNy0xNy4yLDIyLjRjLTYuNiw2LjYtMTMsMTAuMS0xOC45LDEwLjVjLTAuNCwwLTAuOCwwLTEuMiwwYy05LjcsMC0xNS4yLTcuNi0xNi4xLTIyLjYgIGMtMC4yLTMtMC4zLTYtMC4yLTkuMWMwLjEtMC42LTAuMi0xLjEtMC43LTEuM2MtMC42LTAuMS0xLjEsMC4yLTEuMywwLjdjLTE1LjEsMjcuNy0yOC43LDQxLjctNDEuMyw0Mi41ICBjLTExLjEsMC43LTE3LjEtNS45LTE4LTE5LjdjLTEtMTUuMywzLjItMzcuNywxMi41LTY2LjVjMi03LjEsMi45LTEyLDIuNy0xNC42Yy0wLjMtNC0yLjEtNC41LTMuNi00LjVoLTAuNCAgYy0xLjMsMC4xLTQuMSwwLjktMTAsNC42Yy01LjIsMy40LTkuNyw3LjYtMTMuNCwxMi41Yy00LjMsNS42LTcuNywxMS45LTEwLjIsMTguNWMtMi42LDctNC43LDEzLjEtNi4yLDE4LjJzLTMsMTEuNC00LjUsMTguNiAgcy0yLjgsMTMuNC00LDE4cy0yLjQsOS45LTMuNiwxNmwtMC4yLDAuOGwtMjYuNCwxLjdjLTAuNiwwLTEuMS0wLjQtMS4xLTFjMC0wLjEsMC0wLjIsMC0wLjRsMCwwYzMuOS0xMy41LDkuNC0zNS40LDE2LjQtNjUgIHMxMy40LTUzLjMsMTguNi03MC4zYzQuNS0xNC44LDkuOC0yOS40LDE2LTQzLjVjNC44LTExLDExLjMtMjEuMywxOS4yLTMwLjRjNy41LTguNCwxNS45LTEyLjksMjQuOC0xMy41ICBjOS40LTAuNiwxNC40LDQuMSwxNS4xLDEzLjhjMC40LDYuNS0xLjUsMTUuMi01LjYsMjYuMWMtNy41LDE5LjMtMjAsNDEuOC0zNy4zLDY2LjljLTAuNCwwLjQtMC40LDEuMSwwLDEuNXMxLjEsMC40LDEuNSwwICBjMy0yLjMsNi4yLTQuNCw5LjYtNi4xYzUtMi42LDEwLjUtNC4xLDE2LjItNC42YzEwLjctMC43LDE2LjQsNC4yLDE3LjEsMTQuNWMwLjMsMy44LTAuMSw3LjYtMS4yLDExLjJjLTEsMy4zLTIuMSw3LjItMy40LDExLjUgIGMtMS4yLDQuMy0yLjIsNy45LTMsMTAuNmMtMC44LDIuOC0xLjgsNi41LTMuMSwxMS4ycy0yLjMsOC44LTIuOSwxMmMtMS44LDguMS0yLjUsMTQuNi0yLjIsMTkuM2MwLjQsNiwyLjgsNiwzLjYsNmgwLjMgIGMxMC4xLTAuNiwyMi0xOC4yLDM1LjUtNTIuMmMwLjEtMC4yLDAuMS0wLjMsMC4yLTAuNWMzLjEtMTEuMiw3LTIyLjIsMTEuNy0zMi44YzUuNi0xMi4zLDEyLjQtMTguOCwyMC40LTE5LjNsMTYtMC44ICBjMC42LDAsMS4xLDAuNCwxLjEsMWMwLDAuMy0wLjEsMC42LTAuMywwLjhsMCwwYy0yLjUsMi40LTUuOCw4LjgtOS44LDE5LjFjLTQuMiwxMS4xLTcuMSwxOC43LTksMjMuOGMtMS45LDUuMy00LjEsMTIuNS02LjQsMjEuNSAgcy0zLjMsMTYuMi0yLjksMjEuNmMwLjUsNy4xLDMuMiw3LjEsNC4xLDcuMWgwLjNjMS40LTAuMSw0LTEuMSw4LjctNS40YzMuNi0zLjMsNi43LTcsOS4zLTExLjFjMi40LTMuOSw1LTguOCw3LjktMTQuOCAgczUuNC0xMS4yLDcuNS0xNS42YzIuMy00LjcsMy4yLTYuMywzLjgtNi45bDEuMy0yLjRjNC45LTE5LjgsNy4yLTMzLjcsNi43LTQxLjRjMC0xLjMtMC4zLTIuNi0wLjktMy44bDAsMCAgYy0wLjMtMC40LTAuMy0xLjEsMC4yLTEuNGMwLjItMC4xLDAuNC0wLjIsMC42LTAuMmwxMS4xLTAuN2M2LjUtMC40LDEwLjYsMCwxMi43LDEuNHMzLjQsMy43LDMuNSw2LjFjMCwyLjQtMC4yLDQuOS0wLjcsNy4zICBjLTAuMSwwLjYsMC4zLDEuMSwwLjksMS4yYzAuMywwLjEsMC43LTAuMSwwLjktMC4zYzEyLjUtMTMsMjUuNS0yMCwzOC45LTIwLjhjMTAuNy0wLjcsMTYuNSw0LjQsMTcuMSwxNS4xYzAuMiwzLjQsMCw2LjgtMC43LDEwLjIgIGMtMC43LDMuNC0yLjQsMTAtNS40LDIwLjJjLTYuMywyMS45LTkuMywzNi42LTguOCw0My44YzAuMyw1LjEsMi4zLDUuNywzLjgsNS43aDAuM2MxLjQtMC4xLDQtMS4xLDguNi01LjUgIGMzLjYtMy40LDYuNy03LjIsOS40LTExLjNjMi45LTQuNyw1LjYtOS42LDgtMTQuNmMyLjktNS44LDUuMy0xMSw3LjQtMTUuNGMwLjctMS42LDEuMy0yLjgsMS44LTMuOGMwLTAuMSwwLjEtMC4xLDAuMS0wLjIgIGMyLjktMTIuMiw2LjMtMjIuMywxMC4yLTMwLjFjNC41LTkuMiw5LjYtMTUuMywxNS0xOC4zczEyLjgtNC43LDIyLjMtNS4zbDAsMGMxLjItMC4xLDIuMiwwLjgsMi4zLDEuOWMwLDAuMSwwLDAuMSwwLDAuMiAgYzAuMSwxLjEtMC41LDIuMy0xLjcsMy44Yy02LjcsNy4zLTEzLjIsMjAuMi0xOS41LDM4LjRzLTksMzMuNS04LjMsNDUuN2MwLjQsNS42LDEuOCw4LjUsNC4yLDguNWgwLjJjNS45LTAuNCwxMy40LTcuNywyMi4xLTIxLjggIGM4LjUtMTMuNCwxNS4yLTI3LjgsMjAtNDIuOWMwLjYtMiwxLjQtNC44LDIuNS04LjZzMS45LTYuMywyLjMtNy43czEuMi0zLjQsMi4yLTUuOWMwLjctMiwxLjctMy44LDIuOS01LjVjMC44LTAuOSwyLTIuMSwzLjQtMy42ICBzMy0yLjYsNC45LTMuMmM0LjctMS40LDkuNS0yLjMsMTQuNC0yLjdsMTEuMS0wLjdjMC41LTAuMiwxLjEsMC4xLDEuMywwLjZzLTAuMSwxLjEtMC42LDEuM2wtMC4yLDAuMmMtNSwzLjktOS45LDEzLjItMTQuNSwyNy43ICBjLTMuOCwxMi4zLTcsMjMuNy05LjUsMzMuOHMtNC4xLDE2LjMtNC43LDE4LjVzLTEuOSw3LjYtMy45LDE1LjhjLTEuNSw2LjItMi44LDExLjMtMy45LDE1LjRjLTAuMiwwLjUsMCwxLjEsMC41LDEuMyAgYzAuMywwLjEsMC43LDAuMSwxLTAuMmMxMC45LTYuNSwyMC45LTE0LjMsMzAtMjMuMmM1LjEtNS4xLDQzLjgtNDguMSw0NS42LTIwLjhMNjczLjUsMzYxLjR6IE0zMDMuMiwyMzcuOCAgYy0zLjksMC4yLTEwLjgsNi4yLTIxLjIsMzNjLTcuMiwxOC41LTE0LjIsMzkuNi0yMC45LDYyLjhjLTAuMiwwLjYsMC4yLDEuMSwwLjcsMS4zYzAuNCwwLjEsMC45LDAsMS4yLTAuNCAgYzE4LTI3LjUsMzAuNS01MC40LDM3LjEtNjguM2M0LjEtMTIuMiw2LTIwLjMsNS44LTIzLjljLTAuMy00LjQtMi00LjQtMi41LTQuNEwzMDMuMiwyMzcuOHogTTU2Mi45LDQyNi4zYzAuMi0wLjUtMC4xLTEuMS0wLjYtMS4zICBjLTAuMi0wLjEtMC40LTAuMS0wLjYsMGMtNS40LDEuMS0xMC44LDItMTYuMSwzLjNjLTcuNSwxLjgtMTguOSwzLjYtMjQuNyw5LjljLTAuMSwwLjEtMC4xLDAuMi0wLjIsMC4zYy0xLDIuMi0xLjIsNS43LTEsMTAuMSAgYzAuMiwzLjEsMy4yLDYsNS44LDguMWMyLjQsMS45LDUuNSwyLjgsOC41LDIuNUM1NDUuOCw0NTguMyw1NTUuNSw0NDcuMyw1NjIuOSw0MjYuM3ogTTM4NC4xLDI5Ny42TDM4NC4xLDI5Ny42ICBjNi40LTAuMywxNC40LTIuNywxNi4zLTEyLjJjMC45LTQuMy0xLjctOS4yLTMuMy0xMC42cy0zLjgtMi02LjctMS44cy02LjQsMi05LjcsNS4xYy00LjQsNC4xLTQuMiwxMC0yLjgsMTMuOSAgQzM3OS4yLDI5NS4zLDM4MS41LDI5Ny41LDM4NC4xLDI5Ny42eiIvPiYjeGE7PC9zdmc+;" vertex="1" parent="1">
                    <mxGeometry x="179.2" y="142.5" width="51.6" height="60" as="geometry"/>
                </mxCell>
                <mxCell id="7" value="" style="shape=image;imageAspect=0;aspect=fixed;verticalLabelPosition=bottom;verticalAlign=top;image=data:image/png,iVBORw0KGgoAAAANSUhEUgAAA2wAAADwCAYAAAB8IOf0AAAACXBIWXMAACE4AAAhOAFFljFgAAAAAXNSR0IArs4c6QAAAARnQU1BAACxjwv8YQUAACz5SURBVHgB7d3NvhRFuu/xP/1x3tgXsE088wbpeZtw5i1y5k3hBTTgBUgtL0Ch50eKnh/Fnh8pe34EznxLsi+ggRuwdjwVka6gXC/1kpkRGfn7fj5hoS6gKioyM5544kUCAAAAAAAAAAAAAAAAAAAAAAAAAAAAAAAAAAAAAAAAAAAAAAAAAAAAAAAAAAAAAAAAAAAAAAAAAAAAAAAAAAAAAAAAAAAAAAAAAAAAAAAAAAAAAAAAAAAAAAAAAAAAAAAAAAAAAAAAAAAAAAAAAAAAAAAAAAAAAAAAAAAAAAAAAAAAAAAAAAAAAAAAAAAAAAAAAAAAAAAAAAAAAAAAAAAAAAAAAAAAAAAAAAAAAAAAAAAAkNAFYWur1apyL7UrV+xfL1y4cE8T4+rgkXt55crSlcbVQSMAAAAAGJIFZ67MXHngylNXXq9+q9aEhPrY9DrUz9zqw5WLAgAAANAJMmyBCzQsa/axfPbshivbBB5Ll2G6polwdfTSvVRb/OjzUJau/EgWDgAAAMBOQgbtjivfnZI921atCTglu7atl648cuXWyk8rBQAAALCFyWTYVn6qXh3KJ9ouU7SNSWTZVttn17Zh2bcfXXni6m4pAAAAANNjQVrIoj1dHZZFO0+tgq0Oy66dx74Xy3LeWpF9AwAAAN5RXIYtdPpv6TibNoSis2yrbrNr51m6shBr3wAAAIAyrHwm7f7KZ9JSqVWgVb/ZtfM8XZF5AwAAwISNNsO28mvSLJNmOzrWSq/ILNtq2OzaWZ648tjV8RMBAAAAyNPKn/VlZ6P1uSZtX7UKskqbXTvNy5XfcbISAAAAULhRZNhWPpt2Rz6bdkX5WrgM0O1dfkMUeNjrRR2f/1Zt/OgHp/wRb115E/376/DfTBO9vnHv7Y12e29PlUf28jRL+Tp/LAAAAKBAWQdsK5+xmslvw7/NQdY5eL8NjEIwZgGmvXf79QfhtdK7wdmQGvkA70349avwui7tRh8rf5D4M41DIx+8HbFRCQAAAEqSZcDmggXLpFlGrdb42BljbYA2VmP+DEv5wG0pAAAAYOSyCdiiaY93NZ5sGvLVuDJnuiQAAADGLIuAzQVrFqjNRaCG7jWu3GN3SQAAAIxR8oDNBWsz9/JIQH9svd5HrG8DAADA2CQN2MI0SNvYohLQryLPyQMAAEDZfqe07otgDcOw8/vuCgAAABiRZBm2sOX9SwHDsamRl3Y9jw4AAABIJWWG7amAYdkUXNZLAgAAYDSSBGwuu8ZUSKRyIxzIDgAAAGRv8CmRYSqkbTTCFv5IpZHfNZKpkQAAAMhaigzbXARrSKuSP6AdAAAAyNqgGTbOXENGOJsNAAAA2Rs6YLNdISsBeeBsNgAAAGRtsCmRbDSCDNVsQAIAAICcDZJhCxuN2Db+lYC8NGIDEgAAAGRqqAzbXARryFMlNiABAABApnrPsIXs2ksB+bLs2iWybAAAAMjNEBk2doVE7uyYifsCAAAAMtNrho1t/DEytpbtuQAAAIBM9B2wsY0/xoRt/gEAAJCV3qZEhuxaJWA82OYfAAAAWektw0Z2DSNFlg0AAADZ6CXDRnYNI0aWDQAAANnoJcNGdg0jR5YNAAAAWeg8w0Z2DQUgywYAAIAsdJphc51cO8/qmQjYMH5k2QAAAJDce+rWDRGsoQzrLJsL2pYC0Al3TdmLDexdceVyeI29csXOQnzurr1GAACg8wwba9dQErJsQAdCoFa7ckt+YO/iFr9t6crCXYOPBQDAhHUWsIW1a48ElOUaWTZgPyFQu+TKN/IB2z5sIPCIwA0AMFVdBmxk11AismzAHkKwdseVubbLqJ3na3ctfi4AABJwzzWLm37W8PHOo052iWRnSBSMHSOBHYVgbe7KA3UTrJl77s/9KWxuBQDAZHSSYSO7hsKRZRuYu6fcVXcd/ZReu/I2/LppX0veUCMK1u6rH09d/V0XAAADSplhOzhgY+0aJoK1bAOayCDQG/kdEe31Rfi1BXPPNVLRmrWf1R/7Sz539fRAAAAMZOwB21Ptv5gcGAvbre62MAiy9usdEl+EV8vwvtEIDPgws6DtQ7b+BwAMZbRr2NwbtzN0agHlm7F2BgOq5Tfs+M6V1zYw5sodVyplKmTXZhrmQWYPzW8EAMAEHLrpyF0B00F7Ryq1/AYeL11g9MyVWxkGbxZE/U3DqRlEAQBMwd4BW+gs3BIwHXfoICIDNrNhIR+8PcphF9OQXavk39uQZgIAoHCHZNhuCJgWC9Y+EZCPmStPw5TJWmkNHaxZRu+PAgCgcIcEbHcETM9MQH5qHQduldK4rOENHSQCADC4vQI2DsrGhHGQNnJW63iqZKXhWLYrxXRhpigDAIq3b4aNtWuYMqYDI3cz+Yxb6ffqURx3AADAIXYO2MKobS1gum6x+QhGoHJlEbJtfbdX23XklYZHwAYAKN572h1bm2PqrPM7k99mHcjdTH4q77WeD5p+ruG90AiEXTTtvlFFr9L5SwuazVcOCz9btGNpXN/tfztNs/lKPXtR223rswr/qzrnt7525a2oUxxo4/5Z6d176Eme2D9ce0vxTOrNPgEbu+QB/jogYMNYVK7Y+W2fuofYUv2wh6NlvIbKPttTfKmMRB2LWn5DlA/Cr9sOb1d/RxOKBawvw+tz991OJuMY6uFKVD4Ir5U6EP78tk1b/S7lg46iOoGtqO1aHV7Wcb1W6rbtWv01Cm1Wvt02AoKoLdqUfmuDtXa7ru9Hf057DT90ZTnme+SFXX44bLbwVADMJR40/XD3GuuEVkIfZq7dPlbH3Hdmz5MfNNyU+Zfuc3yohKKOxQ1XPtbuHYuuPQ/le428c7Ip1HUtH0xYfVtHbqjBgZjVqdWxjeL/ONYAbiNAa9tvql1XG71bp41wkI17UzygsamRb9NLJWzPG0Gaveda/XiiA9pZeM79rOHv8492DdgWYsMRoHXkLvi50DkCtt51HrSFB+41+aBtCEmuvwE7Fl1YasSBRRSkWT1bfacI0M7TyNfzwzHUcVSnbfvNsU6XriyUUfAW6m2mgbnPv9jl56Pv9772uzc18vV/NETdR+93Jj9zaaj22Lhiz8DFLp9zFAFbWLT+WgBab9yF/r7QOQK2QfQRtNkz5Vv1v5OqtY+rQ2aQoil4M+UbPJylkZ/G/X3OGYwoILazXmca133A2uWRMssSbdTpXY2r7S5cedzjVO6thHvbLxrWyn3urTYHDN/xR658pe4GkRbqKXAL7/eS/Pvt+3lxlkb+cz7c5nkyloBtZr9BAGLXUj9ISkTANgh7OF3rMisQHsI2iPGT+vv+7C+5PtR111NHKDXLuj3M6d418qBiU6MBsxSniTZgmWv8s6PWwXAf07m3kXPAFr5nu2a+Vvc6n8kQ3q9lAHO6zp+5cvO86zVlwLbLtv5MhQR+K+XIEHAIe1B+1+UB2+5hZy82E+Om+tty/8shAg3rVISZJdYJsgC0VjnsvvXUfb6fU5/VF9WzdeCsUz7X+A9Er+Szgy/dZ/t6Newh9m2dVvKZA6vTEvpvlo1Z5NBmcxG+Zxsgs2RKH8Fap8L7te/RgqO58rrObVDup5zb1rap1kqcvQachAcHxqxSxzMnQtBmD+TrOt7Suws2LHtviHVrYQT4U/nO7l2VK2knONSzZdRKCdROYu3nh6HqN8pe2DVY4vOpbbOPhg6EM9Ru9DRT5qJr3Qa/rihPFvzaAMt9ZWjbDFstACe5GHZPBcaqdm2406BkI2hb6nDWobdpkA/UszDlxUarbS1eiQHESawT/GjIoMIVG9F+Kr+urvR6buu3t+A/qtOSg9/YzJWfc+1c9y3cp2yadq7Bz69CsDbXOK51C9ru59iutg3YyCIAp2NaJMbuftej1Ra0uWKdR9s58rb2y7bZtErbxOFq39Mgo+lFNmJdclbtNNYBvKSeRSPtQx4BkQOr3146q9Eapj7XjubI6nTuPv8PU8q2bawBy1oILG0Wx5gCa3vP9/scYNnHNosZK5FhA87CgAbGzjqSvWwqFQK3hXwwYNMMbdOA5ozf0p4JZA/LSzYFsu/dIKPNUqYWRAxmY73NFLJqvYvq9DuNYA1Tj9bHibi6yD7bdKhod8XsA6AQrH2jEUzZPME6g+k+QzYD8u9t8TO1AJxlPS2S3SKLYNmcRvurwqt1Rj8I/z6WTkTdZzsO0ySfWNk4tPdiKI2VRLvqtR2L4jt8KUSdTJtmSh13IKpTG2SoBKsL2zTi8yGmTifUrlvLWpQFnGm82qBtOeQRMqfZJmAjewCcz0ZhlsLYLfsIWMI6x8vK/6Ble8Au1bMQvLWZtKSijgVTm3tAYNE96vRUbQf79+4ec6TCRId3V8pYtGathPWF7UDTdSV25pTIsNVuLQDn+UTAKSwIdMXOvbKpO/YASHKW0BbqKW2iE+0GOcmNC/pGYNE96vRc7fqjEq9p+2xfKGPRuZUl1X+dw3b/561hqwVgG9UU5s/jcDblz5WZ8g3cphS8tDutoWMEFt2jTreW5aYRhxhDdm1j6nNJ2vaUdN3teQEbU0SA7dUCthQFbraDYvL58ZFJZNnGMr1ojDY2camEg1GnO2unR9YqQ/bZNYXARmW2TwtEkw4AnBewfSwA22JaJHYWdlC0KSSN8jGFtjyGDtBYtXVbCV2hTne33kxo7Fv+h2C9Vv7ZNUvylLzvxV+UcHfbUwO2ML2r0rTYKPdD+RFv60C9fyGQH9my//Zp+JlG07SU//xWDzbisFlH7ZlL523dXaI6dcoc4xR2RrRrp1Eeit5sagwdoLGKMpdTPMuuF9TpQayf8o3GzfpXud+TpzC93OKivyiRs3aJrDUdS1eOztodLmzp+TwU25r6bghq7QZa+k6abSD7xNXD89N+KNTRMvzrwv7h6mgmXz+1psGy0t8L2JEFbe56scGOp0qv9KMqxtABGp1oDQuZy45Qp52wwdS7I9/uP9sZbxOaXm7PjZkSOWtK5BSmxCxduWY7t+3TMbHgJfPNA7qw0PHhtc93/c023SvsjGcd0UbluyZgT+E+dKT07MFU+jPgstC1ktewpEKdHm49nXSMM2BGMhtgStPLayX6LqacYbvX1WhLmM40s8P13OvXSjjHtUONK7e7GmEP63QWro7mKnsXOuvkMm0Fe7PBEXedWDtKveuovYd72/xg6FRc2WdQZ1/7/p0bh3anZrMSbMbGK/l77ptQmo2fqzZ+beUDHR/MnvyZE3UsyVx2ZCLrgoZiSzZsyt5nGpesZwOwedNwTgzYCt8hzB6Gn/Yx1ceCkhC02ZSmSuPVyGceG3UsdEbtO/haZbLt/S+G6aHAvixQSj01cpe2bJ0KmyZu03aWrjzsI3iLgi3rwFhH1oKWD7W71MHaUudMw9/QnPY/NgJQyxrWoQwdxK03eBC6NIV1QUOygfV/jHCqd84bALJ500BOmxJZ6nb+1vG41ufFmuHmAbuyTtZHfQRrrZDZtA1cSg1qSr1+MJBwj1oqvV07CpX8aOsz1zF66cojV27su0ubBSMWNNogYjgI14LY167YPaTWOB3tOw3/JLbfkwXV0eHstiFUu0mWZfuX6hmj7N2jTnsxxuCiUqZtgM2bhnXalMhS5/ZfG2LKTtg8wIK2sWXaGvnsY++BlH0Pro6sY5HDBgtds07uQsBhbPOaWulcCH//vpvoVPIdTisKmXW7/zbyUwAt8Hp7yu+z7JBlz/rarbhSGq9tloF65jft9ZtkuXq3DaMq+e/yjvrJLtpf+FehS7nWaSN/T7D21V7TrYtRqXWc8c1JPbJZMLXyNYbNm9rN8Oz1VfTf22dMOzsh+6VMpwVstcpzb8j1FSFoawOS7BuCepwGeRobEXZ1ZFO/SpseWQs43ELpr41K3Wk7cVM2eCcxBG+N/BrihXznpLPdjcMoe6XxfLftGsF21+e3enf94KYqerVyWcdrB3vRrs9UPnXa7hS92KGP8GSjbeSyccp6+rYrc+XP3mvO0yFNju9vKb82+Ptt2muUKZzJf55KGfpNwFbo+rVFiu1cQxbJdnwbQ0AyHzJYa9n3Eta9lDSNkHVsOJi1H9eOrEPZW8dwCyn/7j6lujarlMcltJm3cNzKXL6DYoFbpf21uxjmbCnfgXuxR903m/8hWjdYyz+7uu7kWZ3eUR6s73S0z/PshMECC5SsraQexP6bxhGwmSxnvGU6HfKZK5/veo2Hdrq0Ek1FzmWA4VcnrWEr7QHdKOE22SFQXCpvFtCmPJbAtvwvLbjJfVQM4/Cj0hrD7IB9NEpjvTHHvmv6OnsTft1bI99pten79ow85B6c4/3OPo99rvfDmsGHPawbfBId7WP1+FjdPctS16lNWbZ6u9fF4GPoFFt/6KrSr/G/OKLkRK598tyOfnng2tjVQ6/x0E4XOr6es3FSwFZaRzNJ5mjDVltjJ5QsoDXhYfBQZbkm4HCDTeM+xcUxnl20hZQDRNa5tw1ZnrpyK2XwthG42SYlS+0g01H2NlC7FM4PHWJNdrtR0Ez++9373NFM6vSlKwd3fjeFzvD6z1bae1tuwcZY5RAv2MDCbRtYUEei++JMeZyLunbSGrZa5WgSZ47WwtRIex85Ls7cZU56n2zkzaaAlNI55FBedKFRenZNFpMBt4exux838p8p5f2mDkVh6qsV28yhGXK9tYmmrjXaTW4dX1sz/lmqZ1qoR2tX7RTAmXafWpW6Tq0DfL2vOgzX3/rvcOUnpQtMtz5ncsTa9ZqNOtx0I6OzLO2N2PX+RD0IbXUe/jX5tO93ArYw0lfSaOpc+Vgoz4Ati9GDsF7Hsmy5r4XYVqlrfzCsRumVOi3SgqJaebgSysz+JdpR84V8RsJen2e6LjaXWTlHQ+zAua12alUI3ObabU1aqgE/6wB/2XfAGwVtN+WDthRKXWveDvwst82QbmwOY2WbvmoOfZwv+wrWWqGtWj/Z7nO1EtqcEllSJ9Muwn23o+5cRucqxZaZZNdaD1SOi6nXqQAdKTFgsx7KP5WvdkML6+TbfXF9/py7p9j5dt/ZqG843y7ZMzujUXaTVbAWC4HbXH7K6baZ01ppPB9qg7ZQL7ZJRMpB45KWAC3l1xx+FKYCL7f9je0UQFcW2n5ab+rr/umA1/w6k6fEM002A7Za5XiS4chJNgFksFBGwve1VDlqAQfIbEClNAuNj3WSbsjPRPhO/oDy12E93INDDik/4P2klm2w1oo6xGdmA6L1aynYX/65hmcza1L01Sxi/EjjZxn4a2FjnaUOFK3fWsivxT+pzVrd/VnptAHUIKK1l0n3WtgM2Epad9NrmnRPub2n3AJIk+N72hfTIoEMRWuNlhq/OBtnQdzLkIl7MMBOeKnvcS9zD9b2kCqj3VwY+LiJ6DpMtdfAf2jcLPN+tY/vLRpkOC0rnHLmxVbnq/Ug1eDCWslTIl8oM6GBNcrDMtO52zkG2vti4xEcpNAdGnOxXq+jMtmz3AI4y7y9DMFbpW5Zb/sDpWPf33WVJ8Vzw+ry70rD/u5UA7Vj7vPahnHXE/bjKqVh7WWhgUWDC8mSCr8GbKFjUErn4HnGU4l+VB6yC2hN+N5KWQR8JUxxAfZFwNaT6LDUrM7a6UElH7xZ4Pao48AtZcCW2xrsLlijrJTGUglE12GK5/5Y76+2fuu20qqUiPvsqYIm69AtlUicYSspu/ZK+WqUh0b5alQGexhUAvZXKb1G5bIHsG3t3WgaZuo2cEvV4bXvrdRAO0kQfGHgoyROkOLvrzQ+tpZqsPVbm6LNhlJZKq1kSZdSA7ZG+WqUh9Q357Nkmf3bE9MicYhK6ZWS8f6NMLrfbi9e7Oc8wUx+w5K7OkzKjlsus1VKkEN/IMlA+8imna83hskgs5yyzpL1D6PzKpOIA7ZK5cj5wZvLe5tS5ySlSwL2l3og7U2ma107E20vnmKHvJSs0/W167B+e0CnNVXH7U3BO6imqNPU17gFIo3SGFPAtuj73LEtpayzt0qvUQJxwFZSJqBRvgjYzteoHGTYcIjU7afRBISg7ZErn8pn3KbEPvNPIzs3suRBhBSd4Rw6wQwiny2nTZJSToWebDtZB2xhTmpJUyKBXFQC9hA60LXSynk9cKdC0Gaj13+SXycyJTYT4Ad2JZ2sHAYpcggac1biJjv7mHbAJh8tc6NGLkpqixU7RWJPtdLLea1r58LZQxasfejKkfyI7lRY0PatkFqKDmml9FLtODqGACDJVvaZmmys0gZspWXXKuUrl8aWc6MvKmATgyHYUQjybym9pSYoZNvm8oGb7UY4lcCtto1IRjDIVBWcDZzq9vYXlMCI1uj+U/lolEbKYy9ilRKIM2wlyfnzVMpDyvNzzpPze9tHJWA3tciwJRWybY38jopx4FZy8GYdoi+0/TO0UTqlLuNIMQ059UwQa3d/1PDGEqwtS9/8aQfJ+oepl4+RYRtepTxkuXthBmd89KG0ABQ9CtfAfaX3nE7CiYGbnYFku0qWGry978q2WbZUaxytg3+j0OnmqTJsqZ+7lYbXaBxKOuroUJcTX/eVEik1w/ZxxjfyXHYNzHX3QmuLpQ0gsLU/thLuWzPlkV3jnKtIG7i5snD/elU+eLNDt0sM3v6m7foFKQP6v6q8vkvK7e0/VgLhnlcpzXN/LOvXlspE6rPI5NtKpTTWA0VKpA3YStt63G7ilTITbky18lBnGtSWOM2lEnCOcD1acJ9Dds08EU4UBW8PdRy8WebNpk3apiVjD+C2GTizz5dyyuwumcAxaTS81BnLWmmMJXOV4269qYJda6szpfNnJVJqhs0ki4LPUCsflfIMJHL83g71ewFnCB0l64D+oDyuSwtGlipUlx3TOPPmykw+eLNy0xUL6J7qOIAbS3Sx7Uhy6o6kZQKvFBa0pQoiPlGavqC1tb9qeNZonmkE3H0lx7XEjdL529DXfDT7pVIiv4vS0aX5JMOb+Ex5ySo4Ct/XJypPqYvj0YEMgzXzWIVqM5l9PR+iAO6JK3fdf7ruyh/Cq02htADOzr3KPYD7yxZ1lLojadeNHUVwKfegzd7fee8xmm6WInsxeMYymnVUK43/r/w1ylPK7KQNLAydXW83ZErGMmylnsFWK6PPFRpWkjniZ8gtqK1V5uBBqdtP40AbwVpOgf1C5bIHr9X3LVf/F/q+B4YA7o1lLG0KpSttAGdTKW0a5UJ5roOrdMa9KwQXFlg0SsumEf9fZRq0hUDNKsuu820HSZdKwzKW72s4Vi/fKI03mWauNjXKU8r1f23wNMj+AOH6taUKlRJqA7ZS5TS/fab8gpFamUzTjNLNJeLwbLwj6sRdc+UnZRashV0RS1bJB0rWWRy8ox+CuOdhGuVtHa+Ds2mUlt1sM3CpVVv8zPdKL7ugbSNQs87ez/IB0bm/Vek2/LH3+s0QdZhBJzhVHe/qrfKTev2qsbb6f0I76k24FmygJfnacgvYKpXrjjIISDPapvsk9zN5wFXK46DgvpBlQzwtyh42XymvaZCtI03HTANm206zMY1yJp+B+1w+cEtpm41HcgjYjAVt/yn/TEvyXbbX9wmBmr3u8gxIOSXZliX02i8I9ZOyE2wf7juNQ+p7wGlyCHg/kh9g6OV6D+10/XcoA6Vn2FLMc31HDgsVz1HLj/InE+porrIRsE3UCZ24uXwn7q7yM4Xs2qZKPttm38mvgVvK50aYbvjAlT8p/63HbaQ9l/doFTfXu9/lhZ6Dj83r256nNgjwb+0eqMVTTZdKo8189RL4hnqqlb4T/C9hL4nXWm6aya9jfb+rthpdz5ZEsGs5i/5b6QGbsRvPR0qnUr7ZtdY3faeVTxMuMHvAlZxdM5UwClEH7JDSdhTbEToLzvbuxA1oStm1TZWiwE2+A5A06yZ/RMBDpWFvoDrzB46Di1yybK1Kx9+lBQZ1HLwdEpBvXuPyQdqnrjwKf59d57UOkzpz2Qa+Ngugk45w1Am2mU+pO8HLCQ5M9SGX696ytf/PlY8OuWdvDLx8LX9NZ/Osfk/T6EhaQHLVXaCDPnmjzFGlvFWufOXe773wAB7Ses68ylcJY2DB1b4XQbuB0wehVPJTysYyKDbF7NpJKvnOfiOf5fi7uzdaFml9Q09wj7ROUc6DflYvC+U56FbJj8BbaeSzgUv53QGfu+91nwxBJR+Q2bX9R/W3DtymRaYe3LGBJusMz11d/UM7XgNRx7nNqn2h9Ovm2/aKw7Tr2HK57m1KtK0HX+j4nm1ObbMbgZ39gF1rd5TJcqpNFrBNYaqW3VgHDUhCQ7Cb3VgyR/Ze/+Xe93cD15GNYlQC8vCVpskyOVPOrp2k0nFn3x7+C1f+6e5bTfj/q4HulammHW21a6XVgasTW89i7zPn/kQVSrxTY7vL5ZuobGoHYtrf37tQp/ZeLGi7o7Qq+bY/D+Vf8TVwyu9pLwyrN6tvO2etVh5sreg/hC5Y+/xaeZnp+J5t9yUb8DptcKa9rj+WX7uZ9QDrVAI2YwHJW/elzft+yIZAxEbqc2vI57FMV+Pe/7OB6miu8qdCtioB+Toiu3Yme5A/CKXtCDwJgYrpK/tmf2DKsym3DRbt89vUzdyn/2+y/s95G6uk0tZp6oCtVek4M2XXQCN/Fpe1kbcbP/cf8vWaW91anc6Fg0WDCkvlE4zH2vYXXz9N9Ot2IGY0LGD7vaZj/TDpM2iLgrUfND7WeG3x5s0+g7ZoO9+xPdyBEj1w1/pjYVtxR6DtsFh5EQVw5t35NvtNI7O/I+XAX7PDz7bBxVQGgXsVOsSNfBYjt4HN9hq4oXEhu9atdq1lrXGoNGJT2HRkkwUJ864Xk0eLFWfKaFeZPVTy7//TLuvHRHVk086mFqx9ICA/TIU8TDvlyzJvT135RX4dhQ18zeU3o7ABvPfjjWjOKvLrem/L34dTz9LY6gyoEIza9uOpNkgplT2E7fpMNS22JGTX+mEDCrTPAbynabJgweasfuYekC8PzSStjs9VsgW1dzV+babtyH02e1gctFYjCvwuhT831ykowJRYsHbdXds8bLt1Vvah0elZq3Y9RU6Dfc93/HkL2CwbVAkHC1m2dqdQZqQchuxaxzJba1m8KWbYWrX8SOh8n7NaNs5euR3+rBKCtVh76OdstcfZRKt3Dwmey9cRwRqQnmVDbrJubXCV/LPnpJLbgvflLsF8lGW7LXTNArZG2Jd1RGiX/bC6ndqU+iSDnFMO2Ix99jYosWl6l046q+Wk85Xkg5C7Oj7npVKZKh2fLzPTbnV0TceHmOZ89tQQKgF5sE61ZdZ2zZ5gOqwT9qN2FIK29YYsQicIhA+23rzF1ePO7RnnC+2zPS5jChZKFLBNdUrkpko++LLyPJQXobTaHWUuh1JrWir5wM0sdVw/TfQz7RlUbf1UApATgjVsa99Rc+sgfyafMayEg0VHJ+S0a+RY2LKXe0Kf2mv+Z5XNPueXStT/n9K2/tvKcSva3NSaXsAKjJ2thblJsIYtLPedLhuCizYjZBun9LPd8MS4el3ZWbKa5oDxvqwd/k+hV9GOpqUPKCyUcGry1KdEAsAUtBuMEKzhPO3OhHsL06SWrnwudMm+m5vy1zPOtl63xjrdwbT3jdcqU5tdS+Z3AjCESsDw7CHzwJWrdFywpUUX631C0GZtj2MjOhKtZ7OsEUHb6ey+d8/V1/fCIKK2+ZnKsw5GUz9DCdgAoEzrh6et32DrfmzJ2kxno8ihEzcXQVtnQp1asEbQdrK2c82ZgAMLbdOC5NLq3tZBJr+HEbABQFmsw2KHOFtWbSFgO9Zu7nY9ikzQ1j2CtlO10yBpa+m0UyOfqQz2ebJYB0nABgBlsAdLu1btOlMgz7T9gZLT0GYlejlYeCNoo+47sBG0ldI5PsS/Xbnm6mVqZ4JlJZoa+b80/sGEdmptowwQsAHA+NkD8nP3YPnQlaVwlnYLajITXhus9ZqViIK266LuO2F16orV5Z/kp6FNMRi2z2zbyf+Js9byEA0mWNA21k1IsptaS8AGAONkDxR7GFpH2wK1B8K5Qid34X75ocre1WwbgwRrrWj3yOvhdUoBRm+f1bb8lz9HdmoDEetDseWDtUbIRrjWLfNrGeCx3WMHvS9ui4ANAMalXaNmazX+4MqcTUV2F2V8rsofEj217IR1ou4N3SkJAXPjfnlNftv/KQQY1raW6nEdX2jPC/lguPT23E7/vsamSvmKgjbLAI/lOs8yWDMEbMAweKDgEHE2rV2jxlqNA0XBw0w+42Z1ah2L0ju7P8lvSpNsuk+07X/JAUYcWFzve8reRntus20l1Wt8H7zKFMj8jWytZZJBrG1ZwEZHEugf1xl2sdJxZ2/dqY2yaUuhUxsdXQsgSuzsmnVn133WLKaQnRAwL1VGnbfX7iysKx00sNiY9ltCW27vhzbAYPV5RFZtPKK1ljabIceNh+INu7I9koCADQDSWum3AZp1sv4QOnv3CNKG0QYQUWe3zf5YoDPWDm+blVjIZyWyGz3emCY51oxbew0/lc+ofdjXrpvbKiBwizNqf2D647idsPFQDm0xztg+V8beEwCgL6c9kBpX7OHwypUX4dcNnZF8RBtkLFer9dd4I5Q/u1LZjyhv9qatPdmI8fe5d0ZMW+euvpfyHTsrudd3XM+Pc8hcbmrXt7l6XbjXWj6j+df2fysv7T1z6coTV/4x4fticdOEo2vcBhFmrnyh4a/vtl4XrnyZ4zW7Yf1+L7hKsyi3EoA+Ld1N4ZqwFXdf+tq9/F7j9V/h1Ubv3sp36Bp7HcHDYWfu+7KH7SMddwKH8tLV5//QgELwVofy5/DaStn5bTsh1taso/u9Kz+OvbMb1fdMx8GbSVXXbT038nX8ZGxrqUKdVvL1+pfwelHp63TpitVldoFvuMf9bw1vmTpT26fQFmcaJnCLB1ce7nNvDO3gKw3fP1lawGaLAK8IQJ8W7uZwWwCKEgUUl135WL7TET9T++iAbI68W4C2dOVfY8ik7SvU9ZVQLNCo1F9db9ax1euP4fX7krI+JwxCWJ1ejH6kq3qdTJ1iNz0MzMRtrdFIB1diFrDZfOtaAPpEwAZMRBRYVDru/P4x/O9Ku81qeROVRn4a7cvw+qLEjO22Qj1b3bZ1beWP4b9V4fXiln9cXMdWXoVXm7I8qenKUfu1urOBiEvar/020auVX+u05IEFHGZjYMaKtb1K57e7Rv4abpcbrAcESrl2CdiAYVj6/a4AQO8EG6cFFG/IOByOeu7HGfVKfaI30XTe2CTanG068koA+sYDDMCvwuL7NquDnlDP/aBekUJod40miIOzAQAAACBTFrA1AtC3RgAAAMCOyLABw3gtAAAAYEelZthsB62FCjx0sHAW1DyQ//5K81YAAADAjixgK23BqO16eTVsoW4nqS/kAwCCtzzZ92KB2pErH7rv7Z57va7ygjYWZgMAAGBnJQVs1vE/ch3+6+32nnY+TQjcrrrymQjccmLfgwXXFqBZoDaPvzf57+yByvm+GgEAAAA7snPYKo0/m2Ed/duuo//kvB90n7d2L7dCMfueoo7dWfBl39VjV75339fy3N+wWtnZZV9r5C6EvWgBAACAXbQZtqcaN/sMF13n/kI4VO9UFiRE0yXJug1jM5t277xgzb5H+z7Dv445C7zO/AoAAADYw6+j/q5zPHcvX2jcGaelfBDWuLLaNqnhPvsV93LHlY/lT1AnG3K4Npv2d1eW22TT1r/JB9xW/7UrX7lyReNla/O+dJ/9gQAAAIA9vBOYhOmRP7hySeO2cOVL7Ri4mWjKJMHb7nae8vjrbzwO1CxAs0Ct1rg9c+VmWI8HAAAA7OU3wYjrOF+UXzN0S+MPVhbygdt6jd6uy4hC8PaJfPDWZnoI4I61U0mfu/JP7ZBJ+/UPOA7UKlfu63ht4VjZB3oYdrsEAAAADnJq8OE60jP5KZJjz7ZZxuehfNan0Y4Zt1bIPtau/CW8Xgz/a0oBXBugWZ0uXflRPpPWaEcFBmrGBgY+2zVoBQAAAE5zZrARgpS2M11CYLLQnlMlN4V1bx/rOPtWhf9VUgB3UoD24pCApNBAbZ1Vkz9WgvPWAAAA0JmtgouCsm2thToK3FohuG2DuMvh1xejH8k5kIt3ybSAw6Y4vghleeg6rGjnznYzkS80/jVqLbJqAAAA6M3WQUSB2TazlJ8qacWnfjo8Litk4SxouxxKpd8Gcuu/Vv3bPLrAArNGx8HZK/t1l5tkRIHa+67ccOWvKidQI6sGAACA3u0cKBSYbTONjgO3l32fcRw2dqnkA7cqlN+78kH4b5tlW290fGZZE4r5r/DrNkhr+g4yQrD2kfymLXZkwi6fI3dk1QAAADCIvSKTQrNtpnHlo5wzJqHuW29yfa8hu/hMZbFz1excuQdk1QAAADCEg4Kt6Ny2SmUEbja9bS50wrUPaxvXNH6WLlzKZ9UaAQAAAAP5nQ5gnVdXPnS//EzhrLMRs/e/ELr0ucbP2oUdgH2dYA0AAABDOyhga7mO7MK9XJcPeFYapyM65N1y9Wkbmiw0Tjb98ciVq+5zPBEAAACQQOfTGMM0ya/kdwUcyzTJlyFTiI6F9mBr2cay6YgNOFiA9jkBPAAAAFLrJMMWC9Mkb+p4muQYMm5HQi9C0PNQ+bN2+tQVm/p4k2ANAAAAOeg9AxYdA1Apz4wb2bWehWMMfpY/jy03Fqg1Ypt+AAAATJkFbq78vMpPJfTO1fPdVV5+Wfn2eEsAAAAAPNdBnoeO8i+r9B4Jg3H1/dMqPQI1AAAA4Cyus1ytjjNuqQK3lyuya4Ny9V2v0iFQAwAAAHa1She43RUG5+r90WpY1q5+WBGoAQAAAPtbDRu4/Swk4er+oiv/XvWvDdRqAQAAAOjGyk+b+3bVb+BWCcms+t2AxNrNNysCNQAAAKA/K7/O7dGq+6zbXEhu5bNfXbH2YVk729BmLAd0AwAAAGVY+emSP60OD9yYCpmJlQ/ID50aybRHAAAAIBeuY35ldVjWrRaysdpvaiTZNAAAACB3K591a9e6bRO8zYXsrLabGtkGad8SdAMAAAAjsjo+0+2HM4I3pkJmanX61Mj2u7Tv9Q7ZNAAAAGDkTgnerFRCtlZ+auQvBGkAAADAuy6oUCFIq125eOHChQdC1lb+IPOVK4/d9/VGAAAAAAAAAAAAAAAAAAAAAAAAAAAAAAAAAAAAAAAAAAAAAAAAAAAAAAAAAAAAAAAAAAAAAAAAAAAAAAAAAAAAAAAAAAAAAAAAAAAAAAAAAAAAAAAAAAAAAAAAAAAAAAAAAAAAAAAAAAAAAAAAAAAAAAAAAAAAAAAAAAAAAAAAAAAAAAAAAAAAAAAAAAAAAAAAAAAAAAAAAAAAAAAAAAAAAAAAAAAAAAAAAAAAAAAAAAAAAAAAAACk9d/1v6iMoXMkPwAAAABJRU5ErkJggg==;" vertex="1" parent="1">
                    <mxGeometry x="337.57" y="270" width="109.86" height="30" as="geometry"/>
                </mxCell>
                <mxCell id="8" value="" style="shape=image;imageAspect=0;aspect=fixed;verticalLabelPosition=bottom;verticalAlign=top;image=data:image/png,iVBORw0KGgoAAAANSUhEUgAAAfQAAAH0CAMAAAD8CC+4AAAArlBMVEUAgsn////8/f4Fhcr6/f7u9/sckM8NiMwJhsvp9Pr3+/0Wjc7k8vkRis0nldGDwuX1+v3x+Pzg8Pgsl9KVy+nU6vbQ6PUhk9BtuOBXrdxKptk5ntW93vF0u+JEpNcwmtM/odaj0uuPyOet1+5+wOSn1Ow0m9TC4fLZ7PaLxuaHxOVmtN9Qqdrd7vjK5fRist5dsN2e0Op5vuPN5vSz2u+bzuq43PDG4/PX6/Y3ndSoAOt8AAAWjElEQVR42uzBgQAAAACAoP2pF6kCAAAAAAAAAAAAAAAAAAAAAAAAAAAAAAAAAAAAAAAAAAAAAAAAAAAAAAAAAAAAAAAAAAAAAAAAAAAAAGD24KAEABgGAthgjxbG+bc7aqAKkgAAAAAAAAAAAAAAAAAAAJuu5I1U38Nn126XE4WhMADnhM9ApIJSCAWkpirSWkTRtvd/Y7uzs3/aXSVuYQc0z39mSF7OIQznyo0m2cs2vJtXC85rzh+n690zS2e6jP5K2Wk45aucWPAJdr37Y7V7CWTwV0bRQ+5TF8MJeEw2q/WHbPbXQtGzJB6DAEwfmWMgaeiUZVJrIEy9nzMbSUNmRpU/hotgEicBkoZqxGIXw+UsOg1MJA2QzjiGf0WLBxn74CjsqME3qO9rB0mD4hwofJP1WspiHxD9jkAL8FsmYx8IM4qhJeRJHuQHYbTLMbTFrTMk9V5Qu9AiTJ9li+85k+XQsvFBHuN7zUg8aJ1aL5HUW8Zcgw7g1xRJPeVwC7rhyU/2nprVGLpCQvmrvY+CGEN3yLNMvX+C45fMZa1fvdkKOqYl8r3eLzrH0DVSIql95kh3Jo4+uvzCSoXubTJ0qd8Lkj3iT4phL8s19z1KCSGU5qvFLgrEt8osxvA/7B/EH98g2i1WOSW/FuT5fF0ubUMeC35TgjTkHoavrP2czYSK3kw0uAR2Cd3k77lHNQsuEk+EynvG5nsLvsIeD1M5Xv+TkT3FBMPfWX5VBqhRtAFh7j2f7koWpdlDGr1sw+JxRTGIUg8mahKUlW+dnrp8ym59yFphdW7BGVjbFzo6z34FQdoxyRzd+HQHdjBjh3cVxIzLpsjXew3DGVZes1uudp29qdAIa4ePc/VlVGJxecfSPrHbijIpfA2DAJKi08zlnGBopO5LHd0mYxtbIMYrJugUJXShmfp293G+vvTtgkAzHDvolElBQYwVs5ts8j/Yu9PmtGEgDMD7yvKJDTaYI5wmQE1LgEBoaf//H+s1PdOVkVGnrejzmUxmEDbr3Vdiloe4mCw33Js06l1yaU06DlVp3K1cVEqXAVO+bUqJi4X5jG5NMFhLaBDuyqNfSV5LVBDh8sKaORmeJarEBdMecoVexnpwY0/vzTm0bX95R9xHqBAuOnSxYNKVqHD26Rn/rg1d4nBLkRxnOJbQF7Ya9DNvDTXR3SSkwXk3j1BhQD9r1Mpcy/Hwdur4x5px1Wz1bP1aqFCOHNLjLTOo9Tr0o2SVoQ6xvqPbEOyz+mm1Jv1gtIZSlnukLXjoCqhELwP6XvMkUVN2G5Gc5OiiNjF+Qd/xcwmV8JhQHUUJpXVB33lxTXrDPSZkvWASgqP9mFxsoZJtfKpnNoaKyH36qnldYie8gTH9o4uriFPy3YUuoJANnN+VyXBn9EXj2mSe+0h2c+4yXEmuGl/vq6k63xRQfTP19Xv4uuYriStllvfii7e4Wtby6bNc+bKlTxo0O31hnz5JXmW4Wtfq/XL9k8T1wkf6xGtD4ZDQdYYueNGRPnkMjWyhsXj+EtxLmNDu00eDFLyeR1dyJil4ZZ8+6LdhQnRvbzF3J2HGIiEirwRvPaWrNV5HYLkbIkpOMENa26TpP0GPui5/iBUvMPIcNHtSf304AxeGPFl6+IHTimDKeUbBKwnW2CMTNhFYb2c028GUqGVnBT/cwhhx7/dLsNyCjHDegCX2/r2AMdshWSiZw6BwNMzAysmQIgTrNA1h0NzGdmwRwqT5S7DiGRni52Blb2BSaOPD+hyVhMzW53MvjqRAlTQEK/fJlGEbLIkqQkZx73xeZ1Kg0pysM5NQS7vzfZM+SaatMhSoa12QMf5riZpEXLamCX3kNDerbgo1aV9orqLoicpJ0/nhLN95jHrkwSdzhiHqiQ8PCX3jdI7nCEr3ZBnvCSrhskM/SR7Gf8PUyi9Ry3iY0I+czjKEypNtzdh9CJ54OwrouUaeoYZeg0yaoIbsvkHPBSPlTprQshmrchdK9KbD5aRj6HtFRnkZtMUDn0kBnyLwDnZtgOjswBLcmhMFmwzaXpBRzhi6Mn6S33kjwdp1yCaqMeV2ptp4Dl2hT2YdoetVQKzZFizXqq6ccwQrG5JCshDQs3LIrCKFFrFISEHVSTza1IBXjCBFHpBKsYWeARnW7EHLdkoqgSLYt7CpFdvYgrMeVTVCJXRkBRnWWEGHvPeJp87qb236dbC+VIWJ1Yo2dKw7ZFjwEjraBSmoM7zSpqn6EJz2kCo4C+gY98m0gYSGhXNFP9+mSm4AzrlBVfYCGuYNMu0uhIY9VWmUioLEHvdgiNdUqS+g4T4g06ZbXE54VOm1uIX2+xwMuadqbWhYknHvurhcm6pt5C2MVxdgRAVVG0PDhIyb9XC5MVUrIjAWZI8xGFFT+z6hJgdkXHMHFf1rtZnyHxl77MBIPaqW43LphoxjIpj143leCsaO7HH+v+iXLfqZ7PH/9n6Dt3e+kJveYiE3vYlC7gCG3FC1GBqWDpk26uJy8VUtvgPZ4yUYYk6Vmv9Wc6ZJleYCjJdkjwE4O6/6jwU0rH5DG9Y1O9r1djfRhp2CEz9QBecEHeWfHricHKpwF4Nj0y899iO++Z7UnUlVh6/+yGg1HpJawrfeI5tGq4234LSnpJQcJHSkU9JiPkRR9TGetsF5a1OIwl+BI1Y+qQzjPx2X6nTB0//GClZgrWzKQDsTsNI7UmiMoWnhkFnTCHrKBik8pmBNbApGkmord1woN0nocn0yqwVdr/16O7ZDm+o4omYJljiPiJEsU2gryCinhK6UP+91dBZglXad/6480FOWzKonrRD6cjKqGUFbuEyYNS8lWCK37GAxZc5MxA8BPeetUtTQ9cikJWpIFx49FzzEArzQtnPFGmeoZPmzfavevoda3D0ZlOxQS+/Re7ZnNc+gcrbpge2TloCK7L4sfPqmvzm5qEesEvO3KH3uadOnb/ziZVdAqUW2aaZQk9s3raJBHwSd/eHJRW3tKRmTzAXqcp8O+05AH3jT1puthFpkVxl3af5FyCiL22EqpUCVbKs8zNGUhxCsCFWElGnYjrNIClTKyT7vYpiUL8EKR+YudLDcFUyK35F9klzAnPZs6oK1IkOGqn8yasMckdu0Y1VxwH99shX0x2BlD2REcAZLPvotCWPe2nh24AeTFIaIcZOcpQRr1zczMpDKH2drjgUMSY9kp/fs3YlW4kgYhuH/q6rsC9mAsIQdAVlFQL3/G5sRZQkohEZnWqznnD4eW2y0X5IUqSKoPXwRZXZmot3PaXS9yjNOX5ZypuCL9G7uOfpG2cNFTl+GyVqdnt+8mtoVZ67/pTXxNbxbeo1yGp+buMjptQZTD5/ru3Ql/V7g3BXlrTy+gtm5qTnV7NtOdkGZ1pw+TmhbdJ2SdypTvF3jcT3RvLVrRabcPeJqSqJnmen2WtdVL/dxQvCeSUsUXG1yRzftxLPry9eghQpO8Oca/bnKhOGEKPWm/ddRbmvtRMrX7A9FU8941IXo/Hn1RgGn2C5t6M0rq9u3O4jb4MOrqou2mv0aEWJufU9zkdNpy2qLq5oPb3gQt6ENjSuad930knQTp/gtlf7EqICTCne0x72mujG8pRWwn+Ij5cuGufU8TvK6xT95WI4ZTvFynPapf76HV0a/YDtfKxcE/oQRcTqQMJyWL+t0mWIksJb9JC+PDPwJUbj5MdwWr7RNXG4ca3TIecQZwVylC+jllcBpbEqHtHiMy5ntym/Zzl+p9wKXmtR0OlbycYZfrVFmVisQOGOlf/RYmeBS4v6mz8kc00sTDxdgRmTRR7SWwDlKVNezJZ89C5zTv6OPWJHBcAFvUrqxFc8ZFHMBMvMWI50+Vn9iOCsYVDQ6pzisejjl9Hv36qOFh8yC3C29QjUzXu4qyIQVEpU+w7PNb+aj0ens9WSVpRlrq/QZNckzZKJ0y7/paL7PqrUFwzksmLv85FvxIwthTJLP/h3ujLpjH1kEd/Q57s6DDL+QaNdudvo8i8ZD3j+Zyq7GGp2mVRmyEflWqV609P3cqttIVkr259V0mhZXbYET/PxDhX45HsbdvsCHmNIbjBw6q5FHZsLudQfJcFYalUeladxZrvI+MvMGnM6xRoOego+Z/W7s/tYde4r1UoqOx/LMXiTlbP9BfGrgIsJXDDuwFd/ERVi7SBlwt5wsbHY8Xo9KL796v56mO8VaHK0e+7Zt2Pa41x3M6pbGKSOe+PgPsF5IGXHNqs8G3d54/Qv1H1dRXCs6v+85WiZcS7XOrOXh++Xrf/YLyf3597AeTHy38e1PfP8w7oLhexlTucX+bayuwHca39h7Ht8Gq23i+9i3dpmIG1Fs7qrL7fy3UJcevgXL/5oFLj8Pnxv4BqJ6W29sfmP49Jnhq3ndG7wwyC3RyxN8MeW3LXD5gawHH19I9OXh/AfQpwWBr6I05eH8R+CV7ldVf47lrNhPYQ37+AJmuy537T+IlQsYruNXazL5D1Pr2tdk9yaJ3LP/PFb5ihN0hSSUm/mPpFW6hsDFmJdPLJn856rfPxkMlzCDdukmL974mxRnD2N2weitU5Mr2W6Aczd7sJGBmORqRblfvxVcK7d6fcNjn+X27Xw7Luqy+K1Ry8lyNekbJvYwJSj02q1hRR7HbxVXw8ZoFs/vo2i5XEatTjIslV+Kv+KyL78d1zVNc/79I/fnkiRJkiRJkiRJkiRJkiRJkiRJkiRJkiRJkiT9PzRLVS1HLmH6PYqjOOquVu1lZ1bX6X9hlUchp+/TGJbkpUz2uLmeLfBGeXwY0f/h5cnolen7NE2jK5dabzhx3sQrxt4+/D+X/bgrgOXo+zQBRW7q79Q2A2COe+3mslstKADwXOL0FXS3rl4QHfe0T0b/LmoTAJt0air9S6tPuwqA8Yi+Qu0p39Rk9L+N3vEA0XI5bVilPIC8StfjcyBwZfS/TWMMGLFO+4oTgLX4F0TvyOh/IZ4DvIFGaY0AKLgy+o1yqkC/Tgf0AYNRktFvlDUGFpwOjRR4iYx+o1QFaNGRRh+sQ2lOsX73UnctStPoiMbPRdfV8O7lLiw6J6Jv7/Xl5c61OB3gnOjc3/H13biOjH4UPUdHKvnDEyXhcPkUGIpdaCd3fK/erNWgA2ErcXbRlWT2KqSdYmlQfTYUo99bDkN+Ijq/S5q9QFGMQjs3cmifO8+VKE0v5+Z12uGNTjtvKEbhYajK6JdH1+YTH+/Mwtyhjdg4epM8bSG8wS4685VXi12buGcwvPMnHefT6G6rYOIds9PvhZwwBJxS3CpEjrbUQV/srj8po18a/W7lAcI3bNvwGeAtLHrDIwFWtWiPHgmguosOtvZM7+ptHwDzFEXxBQDzqcY/jK5PxwKA8BXF9xjAlMiirQFgapRSf9w/VFV6JgDTf7sbe8pl9Iui1wqA6D+MXE0vlroGwJoWvQknAJbO/j7BB+zaLrrffnhVojflAgAz34xHjdosevIBPIUfRbc6JgCjOpjVGqOk/SwArMLM0et9AEo1N2o0psu8QFCS0S+J7j4CZremv1eNx4Cf6PSmFgD+XKN3fGYDRsw/G8i95AGMc5thgRs/CazUD6I7HQUQq5JFa1qjpQBiEWaMri4A9IcqveKVpsBkIaNnj867AB5U2uBDA5iE288UwJ7xzTf29072HEe3qgDyNZ02uDuYjOiD6DMD8CKXtrSpDZiRky363AOCGt+94wSEIqNnjz5VwBYa7fCWCRZzeqMnr9XLtOaOARFp9El0vWUChSKlcPogumsD/lynfeU+IOJM0e8K659px2ozyOiZo1sLYNygfXcBUNXondMSQH+95RcXDKha9Fn0xjMQlLOcnIkAPGiUNvSAsZMhOo9NmOmTy+VARs8evWyDRRrt41XAV2lDXQFoF4msyAMeX+iz6HpHQLS0DNHdMWC4dECvAphliO50gX6D9jlNJqNnjc7nH5yG7wCo0VZYYDCXlj73UxPxR9HV3q7F6eixD+Q4HSoLYMXPRy8GQJtTylAe0zNHt9pAvqKlTQHEtNPIM4hBbAL2jD6PfucBCz1DdL0LGBU6YhWAfng++guDSCit3pfRs0YvPgJGM0pbAJjvxy3ZgK8AIuEnos8A0aEM0dUe0CvSES0CjNH56CNA1ChNe5TRs0Z3A3zsnvboMdYeNDoRPQeYpSzR6wWga328EkcZno8+BcyQDlRl9KzRQwUw7WNBLZ2jCQCrIp2KHgFeLUv0Sh6INDo2BLzkfPQhYFp0oCujXxK9Fx5TKcXpAkA1PBl9eUn0pUPHYsCPz0efAeZR37aMnnn3bgNV5/zySgEAon1y997KunsPJ0A7HWg3VTs9H70sd+9XD+QmRTpjagCeB4jcqegxIJJMA7kq8BjSEe0BsMvno1cAUaY0PpHRs0Z3mji7XI6XAkCJR8ZuJmY38LLrtNEQwIJniE6RgBjRETUACm/h7gGzSCmV5030og2Wk0/Z/jg6TwTEvU4px7eG13J4ogBBiaePwUaDNorPwPNLlugzH2hyOlRiQJPWOsfPysoGxP12XmelUUrJkNGzRqdaHyiEdILVw9sh2Gl5QH6/6gxQSrShLQEzp2eIbvUB/44O6E8Ayptx/OHGzBO2Gdrrg6P5Aj0SMnrm6FqTgbX0E82bYvOCGKvLgEeVtmo+RERbIwMY1zJEpzkDVhYdVPWACae1F3E41lAngD3aThiIlpb+jeSES/boVAkAEaeraw5tpDZvqwewvXG3+wQUXna3fRBAoU4pYfjWsT4BIn1zyyfAXKaq61MbMMp7ib2Blh40YqLuZlKNUuqRCTnhki36bqsz4tRq5Si36bE5kKcP7/ROawmIprr7xjyAamM/ZWkyefvc7QGr7U1HAeAvi3tR4z7g328y63MTMBJ995BQAHT2j+CF3f1oORN5GT1D9PSsZLdC76ykwPztmrftkH13Fl6JOb2rjQGvWtO3MTyAPc8tehcubbDB+stOG1CGfBMxVgCzt10B6y4NQHR31cInAMrmYVFsGQACa3/4gMLmsehGPvoDGf2C6KRGPsC8VVIL3btZ1xCAP6W1lzEgBpzSi6m8UWpGE6bdi9T3NXQBA4SxnFVctxGvfAYWvN868V8z51xa41MbgFfIlcOwMlwYDPAfnNTUHgCmVHPDYWfhC4DtT9s6KxPwenHFrY8ebMbGpaGMfkl0cpI+1oSJV6yQOLsn1F2N9vCcACZ7o6+AAYAX0xovVwXWTPH2YVXmu1MyewuiaFT18EqItw/Pc+3gxe8Ce8R6t7BVfFDwSjAAyJf4VEbfey3bkI6ET+nXsvFaZDO8Y+PBC98eO9nhCXeny8wObenlBwOAt70Xt/PMdqUKSZE2Kk8MYDFtuMkEW0aroVNaOOgzbASDkFKs4YThjdJsENUY8hZJrzXnQ4eO8EYyVWmfFg4XgWea3rg5dfW9pIM6HSgmM432OG6p0+qotKG7065hmsI07WapmNo6p93HVYW2uFpaFnzTNIN2HGp0RHPj9vqHCrrD46/zYmn5qPhGb15xiEivleokXUy3LJ2+hlqvhBZlwS1LO/N1efE7SZIkSZIkSZIkSZIkSZIkSZIkSZIkSZIk6R/24EAAAAAAAMj/tRFUVVVVVVVVVVVVVVVVVVVVVVVVVVVVVVVVVVVVVVVVVVVVVVVVVVVVVVVVVVVVVVVVVVVVVVVVVVVVVaU9OBAAAAAAEORvPcgVAAAAAAAsBDmF2BbYCy3zAAAAAElFTkSuQmCC;" vertex="1" parent="1">
                    <mxGeometry x="360" y="40" width="65" height="65" as="geometry"/>
                </mxCell>
                <mxCell id="12" style="edgeStyle=orthogonalEdgeStyle;rounded=0;orthogonalLoop=1;jettySize=auto;html=1;exitX=0;exitY=0.5;exitDx=0;exitDy=0;exitPerimeter=0;" edge="1" parent="1" source="10" target="9">
                    <mxGeometry relative="1" as="geometry"/>
                </mxCell>
                <mxCell id="13" style="edgeStyle=orthogonalEdgeStyle;rounded=0;orthogonalLoop=1;jettySize=auto;html=1;exitX=1;exitY=0.5;exitDx=0;exitDy=0;exitPerimeter=0;entryX=0.5;entryY=1;entryDx=0;entryDy=0;entryPerimeter=0;" edge="1" parent="1" source="9" target="10">
                    <mxGeometry relative="1" as="geometry"/>
                </mxCell>
                <mxCell id="14" style="edgeStyle=orthogonalEdgeStyle;rounded=0;orthogonalLoop=1;jettySize=auto;html=1;entryX=0.547;entryY=0;entryDx=0;entryDy=0;entryPerimeter=0;" edge="1" parent="1" source="9" target="11">
                    <mxGeometry relative="1" as="geometry"/>
                </mxCell>
                <mxCell id="9" value="" style="verticalLabelPosition=bottom;html=1;verticalAlign=top;align=center;strokeColor=#10739e;fillColor=#b1ddf0;shape=mxgraph.azure.computer;pointerEvents=1;" vertex="1" parent="1">
                    <mxGeometry x="150" y="130" width="110" height="112.5" as="geometry"/>
                </mxCell>
                <mxCell id="11" value="" style="verticalLabelPosition=bottom;html=1;verticalAlign=top;align=center;strokeColor=none;fillColor=#00BEF2;shape=mxgraph.azure.laptop;pointerEvents=1;" vertex="1" parent="1">
                    <mxGeometry x="312.5" y="250" width="160" height="80" as="geometry"/>
                </mxCell>
            </root>
        </mxGraphModel>
    </diagram>
</mxfile>